<?xml version="1.0" encoding="UTF-8"?>
<svg id="Layer_1" xmlns="http://www.w3.org/2000/svg" version="1.1" viewBox="0 0 215.76 89.98">
  <!-- Generator: Adobe Illustrator 30.1.0, SVG Export Plug-In . SVG Version: 2.1.1 Build 136)  -->
  <defs>
    <style>
      .st0 {
        isolation: isolate;
      }

      .st1 {
        fill: #f63;
      }
    </style>
  </defs>
  <g class="st0">
    <g class="st0">
      <g class="st0">
        <path class="st1" d="M21.75,38.18c-2.14,3.89-5.55,10.51-6.7,12.57-1.78,0-4.28-1.47-4.48-3.29,2.3-3.25,8.84-13.4,11.34-17.69.28-2.14.75-4.08,1.35-5.27.36-.08.75-.12,1.19-.12,2.22,0,5.08,1.07,5.79,2.58-.83,3.61-1.63,7.3-1.98,11.02,2.46-4.08,5.91-10.43,7.38-13.72v.04l.28-.83.12-1.63c3.05.04,6.82,2.74,6.82,5.67,0,1.51-.32,2.58-.71,3.97-1.31,4.56-2.97,12.73-3.09,19.31-2.3,0-5.39-1.94-6.15-3.93-.08-.67-.08-1.51-.08-2.38,0-2.97.36-7.06.91-10.91-1.71,3.93-4.2,9.6-5.55,12.21.04.32.12.67.2.95-3.65-.24-6.03-3.49-6.62-8.57Z"/>
        <path class="st1" d="M41.78,44.93c0-1.59.59-3.73,1.11-5.55.44-1.51,1.63-6.46,2.06-8.8,3.09.24,6.23,2.02,6.23,5.24,0,2.66-1.63,5.71-2.74,8.65,2.02-.79,4.44-2.54,5.35-3.29,0,3.05-3.13,9.64-6.82,9.64-3.33,0-5.19-2.97-5.19-5.87ZM45.98,25.49c0-1.07-.32-1.82-.32-1.82.16-.04.44-.04.56-.04,2.3,0,6.23,1.51,6.23,4.44,0,1.27-.75,2.62-1.94,2.74-1.43,0-4.2-.91-5.12-2.26.44-.87.59-1.94.59-3.05Z"/>
        <path class="st1" d="M54.19,42.59c.87,1.27,3.09,2.3,4.84,2.14-2.22-1.63-5.83-4.92-5.83-8.53s3.29-5.63,6.98-5.63c2.82,0,5.79,1.07,5.79,4.28,0,1.71-.91,3.49-2.26,4.32-1.03-1.19-3.01-2.5-5.16-2.5-.2,0-.63,0-.75.16.67.55,4.01,3.09,5.16,4.76.56.87.79,2.1.79,3.13,0,3.21-2.5,6.07-6.03,6.07-3.97,0-6.7-2.22-6.7-5.31,0-2.62,1.71-4.36,2.74-4.56l.44,1.67Z"/>
        <path class="st1" d="M74.46,31.17c2.78.59,5.39,1.94,6.78,3.77.32.87.59,1.94.59,3.57,0,4.4-2.74,10.71-6.27,12.29-2.02-.28-3.81-2.46-3.85-5.27,2.62-1.15,3.93-4.48,4.2-7.38-3.61,3.01-5.12,6.74-5.59,12.65-2.34-.44-4.48-2.93-4.8-4.64-.08-.36-.12-.87-.12-1.47,0-5.99,3.13-12.37,7.85-14.12.44.16.83.36,1.19.6Z"/>
        <path class="st1" d="M95.2,36.24c1.27-4.92,2.74-10.11,3.57-12.69,2.34,0,5.79,2.46,5.79,5.04,0,2.14-1.43,4.48-2.06,7.02-.08.32-.16.63-.16.63.99,0,1.94.04,2.86.08,1.47-6.19,3.21-12.69,3.77-14.48,2.54.04,6.5,2.93,6.5,6.15,0,1.75-1.82,5.12-2.66,7.73l-.48,1.55c.75.56,1.19,1.67,1.19,2.38,0,.08,0,.16-.04.24l-1.9-.16c-1.19,3.97-2.5,8.76-3.21,12.53-2.06-.12-4.92-2.58-5.59-4.6.2-1.63.87-4.68,1.63-8.05-.99,0-2.02.04-2.97.08-1.15,4.32-2.3,8.57-2.86,11.06-2.22-.04-5.04-2.02-5.71-4.08.2-1.51.71-3.77,1.31-6.35-.99.24-2.18.59-2.97.59-1.9,0-3.01-1.67-3.01-3.49,0-.24,0-.44.04-.67,1.94-.28,4.36-.44,6.98-.51Z"/>
        <path class="st1" d="M122.68,45.12c0-.4,0-.87.08-1.39-1.15,2.66-3.21,7.06-4.6,7.06-2.42-.48-4.48-3.29-4.6-6.19v-.55c0-6.23,4.4-12.57,7.22-12.93,1.79.4,3.29,1.75,4.2,3.29.24-1.19.48-2.62.67-3.85,2.93.2,6.23,1.94,6.23,5.24,0,2.46-1.62,6.42-2.46,8.49,1.9-.87,4.16-2.42,5.04-3.13,0,3.05-3.17,9.6-6.9,9.64-3.17-.08-4.88-3.01-4.88-5.67ZM124.35,37.19c-2.74,1.98-4.64,5.27-5.59,9.44,1.78-1.35,3.81-4.4,4.76-6.42.24-.83.67-2.3.83-3.01Z"/>
        <path class="st1" d="M141.68,35.8c0,.91-.24,2.42-.67,4.28,1.67-4.08,4.28-8.92,5.71-8.92,1.59,0,4.92,3.01,4.92,6.11,0,4.48-3.29,11.78-7.93,13.52-1.94-.08-3.73-1.98-4.36-4.28-1.71,5.91-3.93,12.14-5.04,13.4-2.02-.04-5.31-1.51-6.19-3.61.79-1.86,2.22-5.27,4.04-11.54,1.19-4.08,2.62-9.12,3.29-14.2,2.94.2,6.23,1.94,6.23,5.24ZM140.33,42.98l-.44,1.55,1.03-.08c1.43-.79,3.33-4.12,4.6-8.13-1.51,1.15-3.61,3.65-5.2,6.66Z"/>
        <path class="st1" d="M160.95,35.8c0,.91-.24,2.42-.67,4.28,1.67-4.08,4.28-8.92,5.71-8.92,1.59,0,4.92,3.01,4.92,6.11,0,4.48-3.29,11.78-7.93,13.52-1.94-.08-3.73-1.98-4.36-4.28-1.71,5.91-3.93,12.14-5.04,13.4-2.02-.04-5.31-1.51-6.19-3.61.79-1.86,2.22-5.27,4.04-11.54,1.19-4.08,2.62-9.12,3.29-14.2,2.93.2,6.23,1.94,6.23,5.24ZM159.6,42.98l-.44,1.55,1.03-.08c1.43-.79,3.33-4.12,4.6-8.13-1.51,1.15-3.61,3.65-5.2,6.66Z"/>
        <path class="st1" d="M189.98,35.41c0,2.38-4.52,14.08-7.02,25.3-2.22-.04-4.76-1.63-5.59-3.57.63-3.05,1.55-7.14,2.7-11.62-.95,2.34-2.3,5.27-3.09,5.27-1.75-.28-4.4-1.78-5.31-3.25-.32-.71-.44-1.71-.44-2.89,0-1.51.2-3.29.59-4.92.95-4.12,2.7-7.89,3.89-8.76,1.71.08,5.24,2.14,5.24,4.68,0,1.98-1.23,2.06-2.5,6.15-.48,1.55-.87,3.17-1.15,4.92,1.31-1.03,2.9-3.49,3.93-5.55.87-3.05,1.98-7.18,3.01-10.63,3.33.28,5.75,2.38,5.75,4.88Z"/>
      </g>
    </g>
  </g>
</svg>